<svg width="433" height="70" viewBox="0 0 433 70" fill="none" xmlns="http://www.w3.org/2000/svg">
<path d="M18.7744 5.06543C28.9234 0.545973 35.8801 0.0448222 40.2578 0.774414H40.2598C42.6787 1.1845 44.4115 2.20336 45.4238 3.67285C46.4359 5.14205 46.675 6.98511 46.2598 8.93652L46.2568 8.94824C45.8291 10.7446 44.7004 12.0746 43.5781 12.958C43.0154 13.4009 42.4461 13.7392 41.9502 13.9727C41.4867 14.1909 41.0506 14.333 40.7295 14.3682L40.7305 14.3691C40.0708 14.4789 39.464 14.1814 39.2412 13.6436C39.1298 13.3742 39.1285 13.0629 39.2695 12.7783C39.409 12.4971 39.6635 12.2866 39.9834 12.1533L39.9961 12.1475L40.0098 12.1436C41.3018 11.6875 43.2908 10.5909 43.7852 8.33105C44.0787 6.93248 43.8804 5.83347 43.2637 5.0166C42.6389 4.18919 41.5162 3.55975 39.7744 3.25684H39.7734C37.8541 2.91818 34.8717 3.08208 31.3809 3.7959C27.9018 4.50732 23.9599 5.75674 20.1357 7.55176L20.1348 7.55078C16.85 9.11523 13.5032 11.0843 10.8281 13.3232C8.14456 15.5693 6.19291 18.0404 5.59668 20.6006C5.03331 23.1921 5.38462 25.4916 6.8252 28.041C8.19094 30.4578 10.5357 33.098 14.0332 36.4014L14.748 37.0713C16.9292 39.102 18.8288 40.9243 20.4443 42.6016C28.5916 39.3567 43.2583 35.1566 46.6406 34.3135L47.166 34.1895C47.7074 34.0654 48.1696 34.0276 48.5293 34.0625C48.7089 34.08 48.8845 34.1176 49.0371 34.1875C49.1825 34.2541 49.3685 34.3794 49.457 34.6055C49.5551 34.8562 49.4821 35.0924 49.373 35.2539C49.2709 35.4051 49.1229 35.5204 48.9746 35.6084C48.676 35.7855 48.2423 35.9305 47.6885 36.0342C45.9445 36.4136 31.0884 40.6885 22.1992 44.3955C27.9138 50.5128 29.9682 54.675 29.165 59.8154L29.1641 59.8145C28.66 63.1695 26.3359 65.7481 23.1553 67.374C19.976 68.9992 15.8998 69.6991 11.7617 69.2979C3.81623 68.5755 -0.182665 63.8512 0.59668 59.2607L0.598633 59.2529C1.14219 56.3262 3.2763 53.5918 6.17285 51.1133C9.07789 48.6276 12.8151 46.3434 16.6885 44.3271C16.9579 44.1531 17.2748 44.0059 17.5762 43.874C17.6831 43.8273 17.7879 43.7811 17.8916 43.7363C16.4897 42.2917 14.7991 40.6631 12.9609 38.8252L11.3994 37.332C7.90596 33.9443 5.45 31.2127 3.9502 28.6895C2.21637 25.7724 1.75492 23.1228 2.41406 20.0742C3.7284 13.9954 8.73561 9.49225 18.7744 5.06543ZM19.6445 45.5322C19.1111 45.7863 18.6633 46.0402 18.2021 46.3037L18.1924 46.3086C13.3558 48.9432 9.78902 51.227 7.33887 53.3672C4.88842 55.5077 3.60137 57.4643 3.23633 59.4355C2.95672 61.0549 3.54637 62.6789 4.99023 63.9766C6.44337 65.2824 8.77118 66.2586 11.9229 66.4893H11.9219C15.7767 66.7195 19.2271 65.9275 21.7959 64.5576C24.3756 63.1818 26.0062 61.2607 26.3652 59.2607C26.9473 55.6138 25.7144 52.1877 19.6445 45.5322Z" fill="url(#paint0_linear_3259_22)" stroke="#75120D"/>
<mask id="path-2-inside-1_3259_22" fill="white">
<path d="M77.0236 68.8213C70.1522 68.8213 65.121 65.537 64.0029 59.9467L68.7314 58.8286C69.4768 62.6719 72.8076 64.8848 77.1867 64.8848C80.7039 64.8848 84.0814 63.4406 84.0115 59.4808C83.9649 55.5676 79.7256 54.4961 75.2301 53.2616C70.129 51.864 65.0278 50.2568 65.0278 44.2007C65.0278 38.0747 70.0824 35 76.0686 35C81.8686 35 87.0862 37.4458 88.3207 43.1059L83.8252 44.2473C83.0099 40.5903 79.9586 38.9598 76.2783 38.9598C72.9707 38.9598 69.6864 40.4039 69.6864 44.1541C69.6864 47.5549 73.3667 48.5565 77.5361 49.6745C82.777 51.0954 88.7865 52.7259 88.7865 59.3411C88.7865 66.0028 83.1963 68.8213 77.0236 68.8213ZM124.99 35.4426H129.625V68.3787H124.99V53.9371H108.802V68.3787H104.12V35.4426H108.802V49.8143H124.99V35.4426ZM168.694 68.3787L165.945 60.692H151.224L148.476 68.3787H143.654L155.79 35.4426H161.38L173.516 68.3787L168.694 68.3787ZM152.668 56.6391H164.501L158.585 40.0313L152.668 56.6391ZM205.62 39.612H192.249V49.8376H203.873V54.007H192.249V68.3787H187.521V35.4426H205.62V39.612ZM238.073 39.612H224.889V49.8609H236.512V54.007H224.889V64.186H238.073V68.3787H220.161V35.4426H238.073V39.612ZM271.551 39.612H258.367V49.8609H269.991V54.007H258.367V64.186H271.551V68.3787H253.639V35.4426H271.551V39.612ZM291.752 64.186H303.003V68.3787H287.117V35.4426H291.752V64.186ZM358.429 68.3787L355.681 60.692H340.96L338.211 68.3787H333.39L345.525 35.4426H351.116L363.251 68.3787L358.429 68.3787ZM342.404 56.6391H354.237L348.32 40.0313L342.404 56.6391ZM432.7 68.3787H428.158L425.992 41.5919L415.813 68.3787H412.994L402.885 41.6851L400.672 68.3787H396.107L398.646 35.4426H404.912L414.392 60.3427L423.919 35.4426H430.184L432.7 68.3787Z"/>
</mask>
<path d="M77.0236 68.8213C70.1522 68.8213 65.121 65.537 64.0029 59.9467L68.7314 58.8286C69.4768 62.6719 72.8076 64.8848 77.1867 64.8848C80.7039 64.8848 84.0814 63.4406 84.0115 59.4808C83.9649 55.5676 79.7256 54.4961 75.2301 53.2616C70.129 51.864 65.0278 50.2568 65.0278 44.2007C65.0278 38.0747 70.0824 35 76.0686 35C81.8686 35 87.0862 37.4458 88.3207 43.1059L83.8252 44.2473C83.0099 40.5903 79.9586 38.9598 76.2783 38.9598C72.9707 38.9598 69.6864 40.4039 69.6864 44.1541C69.6864 47.5549 73.3667 48.5565 77.5361 49.6745C82.777 51.0954 88.7865 52.7259 88.7865 59.3411C88.7865 66.0028 83.1963 68.8213 77.0236 68.8213ZM124.99 35.4426H129.625V68.3787H124.99V53.9371H108.802V68.3787H104.12V35.4426H108.802V49.8143H124.99V35.4426ZM168.694 68.3787L165.945 60.692H151.224L148.476 68.3787H143.654L155.79 35.4426H161.38L173.516 68.3787L168.694 68.3787ZM152.668 56.6391H164.501L158.585 40.0313L152.668 56.6391ZM205.62 39.612H192.249V49.8376H203.873V54.007H192.249V68.3787H187.521V35.4426H205.62V39.612ZM238.073 39.612H224.889V49.8609H236.512V54.007H224.889V64.186H238.073V68.3787H220.161V35.4426H238.073V39.612ZM271.551 39.612H258.367V49.8609H269.991V54.007H258.367V64.186H271.551V68.3787H253.639V35.4426H271.551V39.612ZM291.752 64.186H303.003V68.3787H287.117V35.4426H291.752V64.186ZM358.429 68.3787L355.681 60.692H340.96L338.211 68.3787H333.39L345.525 35.4426H351.116L363.251 68.3787L358.429 68.3787ZM342.404 56.6391H354.237L348.32 40.0313L342.404 56.6391ZM432.7 68.3787H428.158L425.992 41.5919L415.813 68.3787H412.994L402.885 41.6851L400.672 68.3787H396.107L398.646 35.4426H404.912L414.392 60.3427L423.919 35.4426H430.184L432.7 68.3787Z" fill="url(#paint1_linear_3259_22)" stroke="#75120D" stroke-width="2.38519" mask="url(#path-2-inside-1_3259_22)"/>
<defs>
<linearGradient id="paint0_linear_3259_22" x1="0.947335" y1="34" x2="49.0032" y2="34.0118" gradientUnits="userSpaceOnUse">
<stop stop-color="#73110D"/>
<stop offset="1" stop-color="#FF6B31"/>
</linearGradient>
<linearGradient id="paint1_linear_3259_22" x1="63.5759" y1="51.4352" x2="432.696" y2="52.8333" gradientUnits="userSpaceOnUse">
<stop stop-color="#73110D"/>
<stop offset="1" stop-color="#FF6B31"/>
</linearGradient>
</defs>
</svg>
